<?xml version="1.0" encoding="UTF-8"?>
<svg xmlns="http://www.w3.org/2000/svg" width="200" height="43.08" version="1.1" xmlns:xlink="http://www.w3.org/1999/xlink" viewBox="0 0 200 43.08">
  <defs>
    <style>
      .cls-1 {
        fill: #12283f;
      }

      .cls-2 {
        fill: url(#linear-gradient-2);
      }

      .cls-3 {
        fill: url(#linear-gradient-4);
      }

      .cls-4 {
        fill: url(#linear-gradient-3);
      }

      .cls-5 {
        fill: url(#linear-gradient);
      }
    </style>
    <linearGradient id="linear-gradient" x1="22.47" y1="14.32" x2="22.47" y2="6.4" gradientUnits="userSpaceOnUse">
      <stop offset="0" stop-color="#ff0072"/>
      <stop offset="1" stop-color="#ff7f47"/>
    </linearGradient>
    <linearGradient id="linear-gradient-2" x1="15.59" y1="14.42" x2="15.59" y2="11.24" xlink:href="#linear-gradient"/>
    <linearGradient id="linear-gradient-3" x1="29.34" y1="14.42" x2="29.34" y2="11.24" xlink:href="#linear-gradient"/>
    <linearGradient id="linear-gradient-4" x1="22.46" y1="40.95" x2="22.46" y2="19.12" xlink:href="#linear-gradient"/>
  </defs>
  <!-- Generator: Adobe Illustrator 28.7.1, SVG Export Plug-In . SVG Version: 1.2.0 Build 142)  -->
  <g>
    <g id="Layer_1">
      <g>
        <g>
          <g>
            <g>
              <g id="star">
                <path id="Path_773" class="cls-5" d="M22.47,12.97l-2.58,1.35.49-2.87-2.09-2.03,2.89-.42,1.29-2.61,1.29,2.61,2.89.42-2.09,2.03.49,2.87-2.58-1.35Z"/>
              </g>
              <g id="star-2" data-name="star">
                <path id="Path_773-2" data-name="Path_773" class="cls-2" d="M15.59,13.88l-1.04.54.2-1.15-.84-.81,1.16-.17.52-1.05.52,1.05,1.16.17-.84.81.2,1.15-1.04-.54Z"/>
              </g>
              <g id="star-3" data-name="star">
                <path id="Path_773-3" data-name="Path_773" class="cls-4" d="M29.34,13.88l-1.04.54.2-1.15-.84-.81,1.16-.17.52-1.05.52,1.05,1.16.17-.84.81.2,1.15-1.04-.54Z"/>
              </g>
            </g>
            <g>
              <path class="cls-1" d="M22.47,4.88c5.23,0,9.88,2.5,12.83,6.37.96-.31,1.93-.54,2.88-.7-3.39-5.07-9.16-8.42-15.7-8.42C12.06,2.12,3.59,10.59,3.59,21c0,1.54.19,3.03.53,4.46l2.23-3.87c0-.2-.01-.39-.01-.59,0-8.89,7.23-16.12,16.12-16.12Z"/>
              <path class="cls-1" d="M38.44,18.81c.1.72.15,1.45.15,2.19,0,.2,0,.39-.01.59l2.23,3.87c.35-1.43.53-2.92.53-4.46,0-1.87-.27-3.68-.78-5.38-.79,1.08-1.49,2.16-2.12,3.2Z"/>
            </g>
            <path class="cls-3" d="M35.17,23.28s.38,5.75-8.03,6.71c0,0-2.59,3.5-6.35,3.38l-.62-.73s2.19-1.19,4.38-3.56c.21-.23.35-.51.42-.82.05-.22.1-.47.13-.59.01-.05,0-.1,0-.15-.15-.42-.86-2.6-.23-5.42-.69.41-1.11.69-1.11.69l-1.29.88-1.29-.88s-3.11-2.06-6.41-3.23c-3.3-1.17-4.05.39-4.05.39l-5.34,12.67c9.26-2.08,14.6,5.34,15.37,6.5v.55c-1.04-1.24-6.85-7.49-17.21-5.45,1.65-3.56,5.01-11.52,5.01-11.52,0,0,.38-1.32-.45-.13L0,36.62s16.12-3.17,20.65,4.34h3.63c4.53-7.51,20.65-4.34,20.65-4.34l-8.09-14.05c-.83-1.19-.45.13-.45.13,0,0,3.36,7.96,5.01,11.52-10.37-2.04-16.17,4.2-17.21,5.45v-.55c.77-1.16,6.11-8.58,15.37-6.5l-4.12-9.92-.27.59ZM21.46,37.65c-4.45-6.23-9.59-6.76-10.8-6.8-.09,0-.18,0-.27,0,0,0,.09,0,.27,0,8.52.03,10.8,6.12,10.8,6.12v.68ZM23.47,36.97s2.28-6.09,10.8-6.12c.17,0,.27,0,.27,0-.09,0-.18,0-.27,0-1.22.04-6.36.57-10.8,6.8v-.68Z"/>
          </g>
          <path class="cls-1" d="M34.7,23.61c-.21.17-1.13.29-1.13.29,0,0,1.51-.91,1.99-2.16.48-1.25,2.3-6,6.21-9.61,0,0-8.9-.99-10.36,5.13-.29-.4.06-2.03.06-2.03-8.79,4.47-5.68,12.06-5.68,12.06,0,0,0,0,0,.01,1.59-2.15,7.15-9.5,9.61-10.55,0,0-8.94,10.96-9.38,12.12l-.49-.73c-1.03,2.19-4.67,4.48-4.67,4.48l.33.31c2.18.38,5.81-3.48,5.81-3.48,6.12-.42,7.69-5.86,7.69-5.86Z"/>
        </g>
        <g>
          <g>
            <path class="cls-1" d="M67.43,21.3c0,1-.32,1.81-.96,2.43-.64.62-1.53.93-2.66.93h-1.89v-3.09h1.35c.67,0,1-.23,1-.69v-2.66c0-.54-.28-.81-.85-.81h-2.74v2.51c0,1.31-.32,2.41-.96,3.28-.69.98-1.67,1.47-2.93,1.47-1.67,0-3.23-.79-4.67-2.37-1.44-1.58-2.16-3.3-2.16-5.15,0-.64.15-1.23.46-1.76.31-.53.75-.82,1.31-.87v-1.51c0-.75.28-1.49.85-2.22.57-.73,1.21-1.1,1.93-1.1h11.15v2.97h-4.98v1.78h3.32c.93,0,1.73.31,2.41.93.68.62,1.02,1.34,1.02,2.16v3.78ZM57.32,21.07v-3.67h-3.13c-.49,0-.73.18-.73.54,0,.69.41,1.51,1.22,2.43s1.45,1.39,1.91,1.39c.49,0,.73-.23.73-.69ZM57.32,14.43v-1.78h-1.85c-.36,0-.54.19-.54.58v1.2h2.39Z"/>
            <path class="cls-1" d="M89.43,19.57c0,1.26-.21,2.6-.62,4.01-.44,1.57-1.04,2.83-1.81,3.78-.9,1.13-2.07,2.06-3.51,2.78-1.44.72-2.86,1.08-4.25,1.08-1.85,0-3.81-.41-5.87-1.22-2.06-.81-3.42-1.22-4.09-1.22-.46,0-.93.09-1.39.27l2.2-3.16c.95.03,2.31.42,4.07,1.2,1.76.77,3.38,1.16,4.84,1.16,1.83,0,3.54-.76,5.13-2.28.72-.67,1.31-1.66,1.78-2.97.46-1.31.69-2.64.69-3.98,0-.82-.15-1.72-.46-2.7-.33-1.08-.73-1.88-1.2-2.39-.62-.67-1.39-1-2.32-1-.98,0-1.47.41-1.47,1.24v10.5h-3.4v-10.73c0-.59-.24-.89-.73-.89h-1.12c-.54,0-.81.32-.81.96v10.65h-3.44v-10.73c0-1,.34-1.96,1.02-2.88.68-.91,1.47-1.37,2.37-1.37h3.59c.69,0,1.27.39,1.74,1.16,1-.85,2.11-1.27,3.32-1.27,1.03,0,2.08.6,3.16,1.81,1.7,1.93,2.55,4.66,2.55,8.18ZM84.33,5.06c0,1.08-.4,2-1.2,2.76-.8.76-1.72,1.14-2.78,1.14-1.13,0-2.1-.37-2.91-1.12-.81-.75-1.22-1.67-1.22-2.78s.41-2.1,1.22-2.89c.81-.8,1.78-1.2,2.91-1.2,1.05,0,1.98.41,2.78,1.22.8.81,1.2,1.77,1.2,2.88Z"/>
            <path class="cls-1" d="M109.61,21.3c0,1-.32,1.81-.96,2.43-.64.62-1.53.93-2.66.93h-1.89v-3.09h1.35c.67,0,1-.23,1-.69v-2.66c0-.54-.28-.81-.85-.81h-2.74v2.51c0,1.31-.32,2.41-.96,3.28-.69.98-1.67,1.47-2.93,1.47-1.67,0-3.23-.79-4.67-2.37-1.44-1.58-2.16-3.3-2.16-5.15,0-.64.15-1.23.46-1.76.31-.53.75-.82,1.31-.87v-1.51c0-.75.28-1.49.85-2.22.57-.73,1.21-1.1,1.93-1.1h11.15v2.97h-4.98v1.78h3.32c.93,0,1.73.31,2.41.93.68.62,1.02,1.34,1.02,2.16v3.78ZM99.5,21.07v-3.67h-3.13c-.49,0-.73.18-.73.54,0,.69.41,1.51,1.22,2.43s1.45,1.39,1.91,1.39c.49,0,.73-.23.73-.69ZM99.5,14.43v-1.78h-1.85c-.36,0-.54.19-.54.58v1.2h2.39Z"/>
            <path class="cls-1" d="M139.75,22.77c0,2.24-1.15,4.14-3.44,5.71-2.19,1.49-4.77,2.24-7.76,2.24-1.75,0-3.87-.53-6.37-1.6-2.5-1.07-4.16-1.6-4.98-1.6-.51,0-.99.1-1.43.31l1.93-3.32c1.31.03,3.16.58,5.56,1.66,2.39,1.08,4.41,1.62,6.06,1.62,1.9,0,3.63-.59,5.17-1.76,1.54-1.17,2.32-2.51,2.32-4.03v-4.55h-4.21v2.51c0,1.26-.3,2.33-.89,3.2-.69,1-1.65,1.51-2.86,1.51-1.72,0-3.29-.81-4.71-2.43-1.42-1.62-2.12-3.31-2.12-5.06,0-1.47.55-2.35,1.66-2.66v-1.12c0-.95.24-1.76.73-2.43.57-.82,1.38-1.24,2.43-1.24h10.65v3.05h-4.9v1.7h7.14v8.3ZM129.29,20.76v-3.32h-3.28c-.31,0-.46.18-.46.54,0,.8.4,1.63,1.2,2.49s1.4,1.29,1.81,1.29c.49,0,.73-.33.73-1ZM129.29,14.47v-1.7h-1.81c-.39,0-.58.21-.58.62v1.08h2.39Z"/>
            <path class="cls-1" d="M164.15,24.66h-3.24V6.45c0-.95-.42-1.75-1.27-2.39-.85-.64-1.84-.96-2.97-.96-1.42,0-2.56.5-3.44,1.51-.75.9-1.12,1.94-1.12,3.13,0,1.11.33,1.97,1,2.59,4.04,1.65,6.06,4.16,6.06,7.53,0,2.11-.55,3.78-1.66,5-1.11,1.22-2.62,1.83-4.55,1.83h-9.73v-14.94h3.09v12h2.66V7.06c0-2.08.78-3.81,2.35-5.17,1.47-1.26,3.2-1.89,5.21-1.89,2.11,0,3.9.64,5.38,1.93,1.48,1.29,2.22,2.92,2.22,4.9v17.83ZM156.47,17.87c0-1.26-.49-2.33-1.47-3.2-.82-.69-1.83-1.17-3.01-1.43v8.49h1.24c.77,0,1.48-.33,2.12-1,.75-.77,1.12-1.72,1.12-2.86Z"/>
            <path class="cls-1" d="M184.33,17.87c0,2.06-.55,3.71-1.66,4.94-1.11,1.24-2.56,1.85-4.36,1.85h-1.08c0,.44.19.85.58,1.24.49.46,1.09.69,1.81.69.33,0,.66-.06.96-.19v2.86c-.36.15-.9.23-1.62.23-1.18,0-2.17-.4-2.97-1.2-1.49,1.75-3.34,2.62-5.56,2.62-1.18,0-2.06-.19-2.62-.58v-4.01c.31,1.13,1.29,1.7,2.93,1.7,1.08,0,1.96-.32,2.62-.96.67-.64.95-1.44.85-2.39h-5.83v-14.97h3.13v12.08h2.66v-11.96c2.65-.08,4.97.59,6.95,2.01,2.14,1.54,3.2,3.56,3.2,6.06ZM181.67,17.91c0-1.26-.49-2.33-1.47-3.2-.8-.69-1.78-1.18-2.93-1.47v8.53h1.31c.85,0,1.58-.44,2.2-1.31.59-.8.89-1.65.89-2.55Z"/>
            <path class="cls-1" d="M200,12.54h-1.97v12.12h-2.93v-12.12h-2.86c-.93,0-1.39.42-1.39,1.27v10.85h-3.05v-11.96c0-.85.26-1.56.77-2.12.51-.57,1.24-.85,2.16-.85h9.26v2.82Z"/>
          </g>
          <g>
            <path class="cls-1" d="M58.43,38.42c0,.63-.21,1.13-.63,1.5-.45.41-1.1.61-1.94.61h-.83v-1.29h.54c.04.14.08.27.13.41.08.12.26.17.54.17.48,0,.73-.43.73-1.29,0-.33-.13-.63-.39-.89-.26-.26-.53-.38-.82-.38h-.72v1.6c0,.49-.21.88-.64,1.17-.42.29-.96.43-1.62.43-1.88,0-2.82-.74-2.82-2.21,0-.4.13-.76.38-1.09.26-.33.6-.52,1.03-.57v-1.22c0-.23-.14-.34-.41-.34-.05,0-.1.01-.16.03v-.56h6.54v1.27h-.56c0-.35-.16-.53-.47-.53h-1.27v1.3h1.38c.66,0,1.16.17,1.5.5.34.33.52.79.52,1.38ZM53.69,38.84v-1.56h-1.17c-.29,0-.55.12-.77.37-.22.24-.32.53-.32.86s.12.63.36.87c.24.24.54.36.9.36.27,0,.51-.08.7-.25.19-.17.29-.38.29-.65ZM53.69,36.54v-1.3h-1v1.3h1Z"/>
            <path class="cls-1" d="M67.88,37.82c0,1.29-.34,2.31-1.02,3.07-.68.75-1.56,1.13-2.64,1.13h-3.47c-.34,0-.6.11-.8.34-.2.23-.29.47-.27.72h-.6v-1.8h4.52c.85,0,1.53-.3,2.03-.89.51-.59.76-1.39.76-2.39,0-.72-.17-1.35-.5-1.89-.33-.54-.74-.81-1.22-.81-.58,0-.87.37-.87,1.11v3.11c0,.1.06.21.19.33.13.11.26.17.39.17v.53h-2.46v-.53c.37,0,.55-.2.55-.59v-3.15c0-.31-.08-.55-.24-.72-.16-.17-.35-.26-.57-.26-.2,0-.37.07-.52.22-.15.14-.22.34-.22.57v3.43c0,.14.07.26.2.37.13.11.26.15.38.13v.53h-2.43v-.53c.13,0,.25-.05.36-.14s.16-.2.16-.33v-3.4c0-.48.19-.87.56-1.18.38-.3.88-.45,1.51-.45.59,0,1.07.24,1.46.72.29-.48.91-.72,1.87-.72.78,0,1.45.28,1.99.84.6.62.89,1.44.89,2.47ZM64.13,32.17c0,.29-.12.54-.35.75-.23.21-.5.31-.8.31s-.57-.1-.81-.31c-.24-.21-.36-.46-.36-.75s.12-.53.36-.74c.24-.21.51-.32.81-.32s.55.11.79.32c.24.21.36.46.36.74Z"/>
            <path class="cls-1" d="M77.14,38.42c0,.63-.21,1.13-.63,1.5-.45.41-1.1.61-1.94.61h-.83v-1.29h.54c.04.14.08.27.13.41.08.12.26.17.54.17.48,0,.73-.43.73-1.29,0-.33-.13-.63-.39-.89-.26-.26-.53-.38-.82-.38h-.72v1.6c0,.49-.21.88-.63,1.17-.42.29-.96.43-1.62.43-1.88,0-2.82-.74-2.82-2.21,0-.4.13-.76.38-1.09.26-.33.6-.52,1.03-.57v-1.22c0-.23-.14-.34-.41-.34-.05,0-.1.01-.16.03v-.56h6.54v1.27h-.56c0-.35-.16-.53-.47-.53h-1.27v1.3h1.38c.66,0,1.16.17,1.5.5.34.33.52.79.52,1.38ZM72.41,38.84v-1.56h-1.17c-.29,0-.55.12-.77.37-.22.24-.32.53-.32.86s.12.63.36.87c.24.24.54.36.9.36.27,0,.51-.08.7-.25s.29-.38.29-.65ZM72.41,36.54v-1.3h-1v1.3h1Z"/>
            <path class="cls-1" d="M89.86,38.42c0,.63-.21,1.13-.63,1.5-.45.41-1.1.61-1.94.61h-.83v-1.29h.54c.04.14.08.27.13.41.08.12.26.17.54.17.48,0,.73-.43.73-1.29,0-.33-.13-.63-.39-.89-.26-.26-.53-.38-.82-.38h-.72v1.6c0,.49-.21.88-.63,1.17-.42.29-.96.43-1.62.43-1.88,0-2.82-.74-2.82-2.21,0-.4.13-.76.38-1.09.26-.33.6-.52,1.03-.57v-1.22c0-.23-.14-.34-.41-.34-.05,0-.1.01-.16.03v-.56h6.54v1.27h-.56c0-.35-.16-.53-.47-.53h-1.27v1.3h1.38c.66,0,1.16.17,1.5.5.34.33.52.79.52,1.38ZM85.12,38.84v-1.56h-1.17c-.29,0-.55.12-.77.37-.22.24-.32.53-.32.86s.12.63.36.87c.24.24.54.36.9.36.27,0,.51-.08.7-.25s.29-.38.29-.65ZM85.12,36.54v-1.3h-1v1.3h1Z"/>
            <path class="cls-1" d="M98.29,37.76h-.42c0-.31-.16-.47-.49-.47h-1.65v1.66c0,.45-.24.82-.73,1.1-.49.29-1.06.43-1.72.43-.75,0-1.36-.15-1.83-.45-.54-.35-.82-.86-.82-1.52,0-.48.13-.89.4-1.24.27-.34.61-.55,1.03-.61v-1.3c0-.24-.13-.36-.38-.36-.06,0-.12.02-.17.05v-.55h6.3v1.16h-.44c0-.28-.15-.42-.45-.42h-1.19v1.32h2.56v1.21ZM94.37,38.89v-1.6h-1.11c-.32,0-.6.13-.82.38-.22.25-.33.54-.33.88s.11.63.33.86c.22.23.51.34.88.34.27,0,.51-.08.73-.25.21-.17.32-.37.32-.61ZM94.37,36.56v-1.32h-.97v1.32h.97Z"/>
            <path class="cls-1" d="M105.91,40.52h-7.09v-.67s.07.03.11.03c.1,0,.2-.05.3-.15.09-.1.14-.22.14-.35v-3.87c0-.13-.06-.23-.18-.31-.12-.08-.24-.1-.37-.07v-.63h2.37v.63c-.12-.02-.23,0-.33.09-.1.08-.15.18-.15.29v4.28h3.99c.2,0,.37-.06.52-.18s.21-.29.19-.49h.52v1.41Z"/>
            <path class="cls-1" d="M115.23,37.82c0,1.29-.34,2.31-1.02,3.07-.68.75-1.56,1.13-2.64,1.13h-3.47c-.34,0-.6.11-.8.34-.2.23-.29.47-.27.72h-.6v-1.8h4.52c.85,0,1.53-.3,2.03-.89.51-.59.76-1.39.76-2.39,0-.72-.17-1.35-.5-1.89-.33-.54-.74-.81-1.22-.81-.58,0-.87.37-.87,1.11v3.11c0,.1.06.21.19.33.13.11.26.17.39.17v.53h-2.46v-.53c.37,0,.55-.2.55-.59v-3.15c0-.31-.08-.55-.24-.72-.16-.17-.35-.26-.57-.26-.2,0-.37.07-.52.22-.15.14-.22.34-.22.57v3.43c0,.14.07.26.2.37.13.11.26.15.38.13v.53h-2.43v-.53c.13,0,.25-.05.36-.14s.16-.2.16-.33v-3.4c0-.48.19-.87.56-1.18.38-.3.88-.45,1.51-.45.59,0,1.07.24,1.46.72.29-.48.91-.72,1.87-.72.78,0,1.45.28,1.99.84.6.62.89,1.44.89,2.47Z"/>
          </g>
        </g>
      </g>
    </g>
  </g>
</svg>